<svg preserveAspectRatio="none" width="100%" height="100%" overflow="visible" style="display: block;" viewBox="0 0 48 48" fill="none" xmlns="http://www.w3.org/2000/svg">
<g id="MF4t8pWPvmEqFdrgrNf8SjvUyA.svg">
<path id="Vector" d="M45.429 21.303C45.5385 22.188 45.5955 23.0865 45.5955 23.9985C45.5955 35.928 35.9265 45.5985 23.997 45.5985C22.0716 45.5996 20.1547 45.3439 18.297 44.838C25.722 43.947 31.479 37.6305 31.479 29.9655C31.479 28.9275 31.374 27.915 31.1715 26.9355C33.8181 27.9917 36.7682 27.9969 39.4185 26.9499C42.0688 25.9029 44.2189 23.8829 45.429 21.303ZM23.997 2.4C28.0035 2.4 31.755 3.492 34.971 5.3925C33.4893 5.43804 32.0314 5.77799 30.6823 6.39253C29.3333 7.00707 28.12 7.88392 27.1131 8.972C26.1063 10.0601 25.3261 11.3376 24.8179 12.7303C24.3097 14.1229 24.0836 15.6027 24.153 17.0835C22.2588 15.958 20.1398 15.2639 17.9469 15.0504C15.7539 14.837 13.5408 15.1096 11.4652 15.8487C9.3895 16.5879 7.50228 17.7754 5.93778 19.3269C4.37329 20.8784 3.16998 22.7556 2.4135 24.825C2.40272 24.5491 2.39722 24.2731 2.397 23.997C2.397 12.069 12.0675 2.397 23.997 2.397V2.4ZM34.332 24.585C34.6545 24.624 34.9815 24.645 35.3145 24.645L35.7255 24.636C35.2599 24.6604 34.7931 24.6433 34.3305 24.585H34.332Z" fill="var(--fill-0, #3F6BFF)"/>
<path id="Vector_2" d="M35.313 24.648C39.7799 24.648 43.401 21.0269 43.401 16.56C43.401 12.0931 39.7799 8.472 35.313 8.472C30.8461 8.472 27.225 12.0931 27.225 16.56C27.225 21.0269 30.8461 24.648 35.313 24.648Z" fill="var(--fill-0, #3332CC)"/>
<path id="Vector_3" d="M16.4895 41.865C23.0614 41.865 28.389 36.5374 28.389 29.9655C28.389 23.3936 23.0614 18.066 16.4895 18.066C9.91759 18.066 4.59 23.3936 4.59 29.9655C4.59 36.5374 9.91759 41.865 16.4895 41.865Z" fill="var(--fill-0, #3332CC)"/>
</g>
</svg>
