<svg preserveAspectRatio="none" width="100%" height="100%" overflow="visible" style="display: block;" viewBox="0 0 79 87" fill="none" xmlns="http://www.w3.org/2000/svg">
<g id="image">
<path id="Vector" d="M39.03 30.015C46.204 30.015 52.025 35.834 52.03 43.009C52.032 50.192 46.197 56.024 39.016 56.015C31.843 56.006 26.028 50.18 26.03 43.007C26.032 35.834 31.856 30.015 39.03 30.015ZM46.5 50.641C44.464 47.677 42.458 44.76 40.452 41.84C42.301 39.689 44.138 37.555 46.017 35.371C45.613 35.371 45.285 35.382 44.957 35.366C44.768 35.357 44.644 35.423 44.526 35.565C43.543 36.716 42.554 37.863 41.567 39.012C41.004 39.667 40.441 40.319 39.869 40.985C39.796 40.88 39.732 40.791 39.671 40.7C38.497 38.992 37.323 37.286 36.153 35.574C36.051 35.423 35.946 35.364 35.763 35.364C34.453 35.371 33.14 35.369 31.829 35.369C31.756 35.369 31.683 35.378 31.583 35.387C31.644 35.483 31.685 35.556 31.731 35.622C33.566 38.292 35.399 40.962 37.238 43.627C37.359 43.801 37.366 43.905 37.22 44.072C35.399 46.176 33.587 48.288 31.77 50.399C31.713 50.465 31.658 50.534 31.569 50.641C31.941 50.641 32.253 50.625 32.563 50.645C32.802 50.664 32.948 50.572 33.099 50.397C34.665 48.564 36.24 46.737 37.813 44.911C37.865 44.852 37.92 44.792 37.981 44.724C38.057 44.829 38.111 44.904 38.164 44.979C39.322 46.667 40.5 48.34 41.626 50.048C41.927 50.502 42.237 50.675 42.782 50.654C43.997 50.609 45.217 50.641 46.502 50.641H46.5Z" fill="var(--fill-0, white)" fill-opacity="0.44"/>
<path id="Vector_2" d="M33.359 36.363C34.029 36.363 34.653 36.356 35.278 36.372C35.36 36.372 35.456 36.481 35.513 36.563C37.448 39.325 39.381 42.09 41.314 44.856C42.379 46.382 43.445 47.905 44.51 49.43C44.562 49.505 44.61 49.581 44.69 49.701C44.234 49.701 43.819 49.658 43.416 49.711C42.855 49.784 42.55 49.551 42.237 49.097C39.345 44.92 36.427 40.761 33.516 36.598C33.473 36.536 33.432 36.472 33.361 36.365L33.359 36.363Z" fill="var(--fill-0, white)" fill-opacity="0.44"/>
</g>
</svg>
