<svg preserveAspectRatio="none" width="100%" height="100%" overflow="visible" style="display: block;" viewBox="0 0 32 24" fill="none" xmlns="http://www.w3.org/2000/svg">
<g id="SVG">
<path id="Vector" d="M2 9.4C2 8.84771 1.55228 8.4 1 8.4C0.447715 8.4 0 8.84771 0 9.4V14.6C0 15.1523 0.447715 15.6 1 15.6C1.55228 15.6 2 15.1523 2 14.6V9.4Z" fill="var(--fill-0, #C2C2C2)"/>
<path id="Vector_2" d="M8 9.4C8 8.84771 7.55228 8.4 7 8.4C6.44772 8.4 6 8.84771 6 9.4V14.6C6 15.1523 6.44772 15.6 7 15.6C7.55228 15.6 8 15.1523 8 14.6V9.4Z" fill="var(--fill-0, #C2C2C2)"/>
<path id="Vector_3" d="M14 9.4C14 8.84771 13.5523 8.4 13 8.4C12.4477 8.4 12 8.84771 12 9.4V14.6C12 15.1523 12.4477 15.6 13 15.6C13.5523 15.6 14 15.1523 14 14.6V9.4Z" fill="var(--fill-0, #C2C2C2)"/>
<path id="Vector_4" d="M20 9.4C20 8.84771 19.5523 8.4 19 8.4C18.4477 8.4 18 8.84771 18 9.4V14.6C18 15.1523 18.4477 15.6 19 15.6C19.5523 15.6 20 15.1523 20 14.6V9.4Z" fill="var(--fill-0, #C2C2C2)"/>
<path id="Vector_5" d="M26 9.4C26 8.84771 25.5523 8.4 25 8.4C24.4477 8.4 24 8.84771 24 9.4V14.6C24 15.1523 24.4477 15.6 25 15.6C25.5523 15.6 26 15.1523 26 14.6V9.4Z" fill="var(--fill-0, #C2C2C2)"/>
</g>
</svg>
