<svg preserveAspectRatio="none" width="100%" height="100%" overflow="visible" style="display: block;" viewBox="0 0 26 26" fill="none" xmlns="http://www.w3.org/2000/svg">
<g id="image" clip-path="url(#clip0_199_2906)">
<path id="Vector" d="M12.972 25.8098C11.052 25.7618 9.12899 25.7528 7.21099 25.6578C5.23399 25.5608 3.44799 24.9508 2.04099 23.4828C0.972993 22.3708 0.386993 21.0298 0.199993 19.5328C0.0699933 18.4868 0.00799334 17.4258 0.00399334 16.3708C-0.0100067 13.5848 0.0149933 10.7968 0.0449933 8.01182C0.0589933 6.79082 0.199993 5.58382 0.667993 4.43782C1.56399 2.23582 3.21499 0.898816 5.52299 0.335816C6.84399 0.0128161 8.19399 0.0108162 9.53699 0.00381616C12.281 -0.00918384 15.022 0.0128162 17.766 0.0428162C18.988 0.0558162 20.202 0.170816 21.358 0.604816C23.657 1.46882 25.057 3.11682 25.646 5.46582C25.881 6.40882 25.947 7.37182 25.949 8.33782C25.956 11.2928 25.961 14.2448 25.949 17.1998C25.945 18.4928 25.869 19.7868 25.422 21.0208C24.54 23.4608 22.779 24.9138 20.247 25.4658C18.831 25.7758 17.385 25.7328 15.948 25.7618C14.958 25.7828 13.966 25.7668 12.977 25.7668V25.8118L12.972 25.8098ZM12.965 23.4898V23.4518C13.658 23.4518 14.354 23.4718 15.047 23.4468C16.528 23.3948 18.017 23.4128 19.481 23.2298C21.481 22.9788 22.834 21.8348 23.322 19.8608C23.518 19.0628 23.586 18.2198 23.6 17.3948C23.643 14.8108 23.655 12.2258 23.639 9.64182C23.632 8.60382 23.582 7.55982 23.454 6.53082C23.189 4.43082 21.896 3.02882 19.807 2.61282C18.918 2.43682 17.994 2.38482 17.084 2.37082C14.646 2.33682 12.208 2.33282 9.76999 2.35982C8.63899 2.37282 7.49799 2.41382 6.38099 2.57482C4.39399 2.86182 3.04199 4.14082 2.64299 6.08082C2.46899 6.92182 2.40999 7.79282 2.39199 8.65382C2.34599 10.7338 2.33199 12.8158 2.35299 14.8958C2.36899 16.3368 2.40799 17.7838 2.54699 19.2168C2.69099 20.6838 3.39299 21.8778 4.71099 22.6438C5.53199 23.1208 6.44499 23.3178 7.38199 23.3498C9.24299 23.4148 11.104 23.4468 12.967 23.4918L12.965 23.4898Z" fill="var(--fill-0, white)" fill-opacity="0.44"/>
<path id="Vector_2" d="M12.988 19.506C9.298 19.5 6.294 16.517 6.305 12.871C6.319 9.208 9.327 6.24 13.006 6.258C16.703 6.278 19.666 9.222 19.67 12.877C19.675 16.533 16.669 19.513 12.986 19.506H12.988ZM8.664 12.862C8.656 14 9.105 15.094 9.913 15.902C10.72 16.711 11.819 17.168 12.967 17.171C15.369 17.182 17.305 15.288 17.321 12.911C17.333 11.77 16.883 10.67 16.073 9.859C15.262 9.048 14.158 8.591 13.006 8.591C11.859 8.584 10.755 9.031 9.941 9.832C9.126 10.634 8.668 11.724 8.666 12.862H8.664ZM21.495 6C21.495 6.861 20.797 7.544 19.928 7.54C19.066 7.535 18.375 6.836 18.379 5.977C18.386 5.132 19.08 4.453 19.937 4.453C20.808 4.453 21.497 5.136 21.495 6Z" fill="var(--fill-0, white)" fill-opacity="0.44"/>
</g>
<defs>
<clipPath id="clip0_199_2906">
<rect width="26" height="26" fill="white"/>
</clipPath>
</defs>
</svg>
