<svg preserveAspectRatio="none" width="100%" height="100%" overflow="visible" style="display: block;" viewBox="0 0 115 115" fill="none" xmlns="http://www.w3.org/2000/svg">
<g id="image">
<path id="Vector" d="M56.784 44.013C63.986 43.883 69.882 49.62 70.016 56.744C70.153 63.968 64.46 69.862 57.292 70.008C50.033 70.156 44.13 64.41 44.02 57.216C43.909 49.987 49.645 44.154 56.784 44.013ZM57.753 55.816C57.734 55.804 57.718 55.795 57.7 55.784C57.7 55.615 57.705 55.449 57.7 55.28C57.691 54.942 57.554 54.806 57.214 54.803C56.622 54.799 56.029 54.799 55.436 54.803C55.087 54.806 54.946 54.952 54.946 55.305V63.024C54.946 63.368 55.096 63.512 55.447 63.512C55.997 63.514 56.549 63.512 57.098 63.512C57.575 63.512 57.686 63.402 57.686 62.935C57.686 61.64 57.682 60.344 57.686 59.049C57.686 58.568 57.794 58.108 58.049 57.693C58.38 57.152 58.883 56.979 59.488 57.059C60.037 57.129 60.386 57.462 60.516 57.98C60.614 58.37 60.659 58.78 60.664 59.182C60.682 60.458 60.669 61.738 60.669 63.015C60.669 63.368 60.808 63.507 61.159 63.51C61.761 63.512 62.36 63.51 62.962 63.51C63.343 63.51 63.475 63.375 63.475 62.985C63.475 61.562 63.489 60.142 63.466 58.719C63.457 58.18 63.409 57.635 63.306 57.106C63.085 55.975 62.508 55.113 61.33 54.797C60.614 54.605 59.889 54.619 59.171 54.806C58.576 54.961 58.108 55.307 57.75 55.809L57.753 55.816ZM50.967 59.145V62.928C50.967 63.368 51.106 63.512 51.537 63.512H53.163C53.557 63.512 53.712 63.354 53.712 62.953V55.36C53.712 54.961 53.56 54.803 53.163 54.801C52.629 54.797 52.096 54.801 51.562 54.801C51.104 54.801 50.97 54.936 50.97 55.387V59.145H50.967ZM50.564 52.286C50.564 53.269 51.357 54.065 52.333 54.062C53.309 54.062 54.109 53.262 54.111 52.286C54.116 51.317 53.309 50.51 52.335 50.51C51.355 50.51 50.564 51.301 50.564 52.284V52.286Z" fill="var(--fill-0, white)" fill-opacity="0.44"/>
</g>
</svg>
