<svg preserveAspectRatio="none" width="100%" height="100%" overflow="visible" style="display: block;" viewBox="0 0 20.5807 17.5992" fill="none" xmlns="http://www.w3.org/2000/svg">
<g id="Group">
<path id="Vector" d="M0.299718 5.81027C0.299718 3.53441 1.7024 1.49433 3.8284 0.680099C5.9534 -0.135134 8.36013 0.44532 9.8817 2.13773C9.9876 2.25162 10.1355 2.31556 10.2903 2.31556C10.4452 2.31556 10.593 2.25162 10.6989 2.13773C12.2155 0.43433 14.6292 -0.153117 16.7592 0.663115C18.8892 1.47935 20.2919 3.52942 20.2809 5.81027C20.2809 8.09812 18.7823 9.80651 17.2837 11.3051L11.7969 16.6131C11.4203 17.0457 10.8758 17.2955 10.3023 17.2995C9.72884 17.3035 9.18136 17.0597 8.79972 16.6321L3.2969 11.3051C1.79831 9.80651 0.299718 8.10811 0.299718 5.81027Z" stroke="var(--stroke-0, #ED0043)" stroke-width="0.599436" stroke-linecap="round" stroke-linejoin="round"/>
</g>
</svg>
