<svg preserveAspectRatio="none" width="100%" height="100%" overflow="visible" style="display: block;" viewBox="0 0 47.9999 47.9999" fill="none" xmlns="http://www.w3.org/2000/svg">
<g id="Group">
<path id="Vector" d="M38.303 0.387879H9.69696C4.5557 0.387879 0.387879 4.5557 0.387879 9.69697V38.303C0.387879 43.4442 4.5557 47.612 9.69696 47.612H38.303C43.4443 47.612 47.6121 43.4442 47.6121 38.303V9.69697C47.6121 4.5557 43.4443 0.387879 38.303 0.387879Z" fill="var(--fill-0, white)"/>
<path id="Vector_2" d="M38.303 0.387879H9.69696C4.5557 0.387879 0.387879 4.5557 0.387879 9.69697V38.303C0.387879 43.4442 4.5557 47.612 9.69696 47.612H38.303C43.4443 47.612 47.6121 43.4442 47.6121 38.303V9.69697C47.6121 4.5557 43.4443 0.387879 38.303 0.387879Z" stroke="var(--stroke-0, black)" stroke-width="0.775758"/>
<g id="Group_2">
<path id="Vector_3" d="M12.0911 37.9752C13.9371 37.8147 15.4622 37.2528 15.4622 34.3633V13.8957C15.4622 11.0061 13.9371 10.4443 12.0911 10.2837V9.68182H25.5354C31.154 9.68182 35.0871 13.4943 35.0871 18.4708C35.0871 24.0492 30.4317 27.3802 24.7328 27.3802H19.9169V34.3633C19.9169 37.2528 21.4821 37.8147 23.2881 37.9752V38.5772H12.0911V37.9752ZM19.9169 26.096H23.9703C27.9434 26.096 30.3915 22.6446 30.3915 18.4708C30.3915 14.4174 28.144 10.966 24.2112 10.966H19.9169V26.096Z" fill="var(--fill-0, black)"/>
</g>
</g>
</svg>
